<?xml version="1.0" encoding="UTF-8"?>
<svg xmlns="http://www.w3.org/2000/svg" width="156.651" height="178.275" viewBox="0 0 156.651 178.275">
  <path id="Icon_ProductDev" d="M203.211,128.1l-13.568-24.925c-.012-.023-.025-.046-.038-.068a2.72,2.72,0,0,0-1.4-1.192L166.014,93.36a2.732,2.732,0,0,0-1.965,5.1l15.736,6.066-54.566,21.967L70.652,104.525l15.736-6.066a2.732,2.732,0,1,0-1.965-5.1L62.23,101.915a2.721,2.721,0,0,0-1.4,1.191c-.014.023-.026.045-.038.068L47.226,128.1A2.732,2.732,0,0,0,48.6,131.94l11.863,4.776v43.39a2.733,2.733,0,0,0,1.712,2.535l61.938,24.935a2.73,2.73,0,0,0,1.02.2c.029,0,.057-.005.085-.006s.051.005.077.005a2.744,2.744,0,0,0,1.02-.2l61.938-24.935a2.733,2.733,0,0,0,1.711-2.535v-43.39l11.864-4.776a2.733,2.733,0,0,0,1.378-3.841Zm-149.719-.083,10.944-20.1,56.835,22.881-10.944,20.1Zm69.075,73.043-56.635-22.8V138.915l44.61,17.96a2.73,2.73,0,0,0,3.42-1.229l8.6-15.805Zm61.938-22.8L128.031,201V140.137l8.443,15.509a2.73,2.73,0,0,0,3.42,1.229l44.61-17.96ZM140.11,150.9l-10.944-20.1L186,107.912l10.944,20.1Zm5.311-99.647a2.723,2.723,0,0,0,1.932-.8l5.55-5.55a2.732,2.732,0,1,0-3.863-3.863l-5.55,5.55a2.732,2.732,0,0,0,1.932,4.664Zm-20.372-8.636a2.732,2.732,0,0,0,2.732-2.732V32.23a2.732,2.732,0,1,0-5.464,0v7.651A2.732,2.732,0,0,0,125.049,42.613ZM88.391,71.621h7.65a2.732,2.732,0,1,0,0-5.464h-7.65a2.732,2.732,0,1,0,0,5.464Zm58.771,15.517A2.732,2.732,0,0,0,143.3,91l5.742,5.74a2.732,2.732,0,1,0,3.863-3.863Zm3.772-18.249a2.732,2.732,0,0,0,2.732,2.732h8.043a2.732,2.732,0,1,0,0-5.464h-8.043A2.732,2.732,0,0,0,150.934,68.889ZM102.745,87.33,97.2,92.879a2.732,2.732,0,1,0,3.864,3.863l5.55-5.549a2.732,2.732,0,0,0-3.864-3.863Zm-.2-37.082a2.732,2.732,0,1,0,3.864-3.863l-5.349-5.349A2.732,2.732,0,0,0,97.2,44.9Zm3.567,31.125a63.543,63.543,0,0,1,5.775,11l1.775,4.223a2.732,2.732,0,0,0,2.518,1.673h17.74a2.732,2.732,0,0,0,2.518-1.673l1.775-4.223a63.591,63.591,0,0,1,5.775-11,22.832,22.832,0,1,0-37.876,0Zm7.47-25.8a17.368,17.368,0,0,1,25.876,22.74,68.956,68.956,0,0,0-6.283,11.941L132.1,92.805h-4.322V68.74a2.732,2.732,0,0,0-5.464,0V92.805h-4.322l-1.071-2.549a68.875,68.875,0,0,0-6.283-11.94A17.423,17.423,0,0,1,113.582,55.575Zm6.567,47.155a2.732,2.732,0,0,0,0,5.464h9.8a2.732,2.732,0,1,0,0-5.464Z" transform="translate(-46.893 -29.498)" fill="#fff"/>
</svg>
