<?xml version="1.0" encoding="UTF-8"?>
<svg xmlns="http://www.w3.org/2000/svg" xmlns:xlink="http://www.w3.org/1999/xlink" width="54.377" height="50.878" viewBox="0 0 54.377 50.878">
  <defs>
    <linearGradient id="linear-gradient" x1="0.262" y1="0.5" x2="0.5" y2="1" gradientUnits="objectBoundingBox">
      <stop offset="0" stop-color="#d66080"/>
      <stop offset="1" stop-color="#c03089"/>
    </linearGradient>
  </defs>
  <path id="Icon_Award" d="M70.994,65.2a19.385,19.385,0,0,0,8.879-6.386c11.428-.169,15.567-13.7,16.153-20.953a1.736,1.736,0,0,0-1.73-1.876H87.014c.031-.933.022-1.54.019-1.683a3.473,3.473,0,0,0-3.472-3.4H54.125A3.472,3.472,0,0,0,50.658,34.2c0,.019-.019.677.017,1.784H43.391a1.736,1.736,0,0,0-1.731,1.876c.587,7.254,4.726,20.794,16.163,20.953a19.456,19.456,0,0,0,8.87,6.386,3.526,3.526,0,0,0,.5.128v5.522c-6.343.574-11.1,4.4-11.1,9.2a1.736,1.736,0,0,0,1.736,1.736H79.863A1.736,1.736,0,0,0,81.6,80.045c0-4.752-4.678-8.554-10.936-9.181V65.282C70.774,65.255,70.886,65.235,70.994,65.2ZM92.31,39.454c-.682,4.074-2.984,13.518-9.916,15.513a42.746,42.746,0,0,0,4.382-15.513Zm-46.932,0h5.538a50.6,50.6,0,0,0,1.377,7.725,35.275,35.275,0,0,0,3,7.783C48.4,52.957,46.059,43.524,45.377,39.454Zm8.748-5.078H83.561s.5,22.6-13.707,27.541H67.833C53.622,56.978,54.125,34.378,54.125,34.376ZM77.686,78.309H60c1.211-2.332,4.772-4.073,8.843-4.073S76.474,75.977,77.686,78.309Z" transform="translate(-41.655 -30.904)" fill="url(#linear-gradient)"/>
</svg>
