<?xml version="1.0" encoding="utf-8"?>
<!-- Generator: Adobe Illustrator 25.2.0, SVG Export Plug-In . SVG Version: 6.00 Build 0)  -->
<svg version="1.1" id="Layer_1" xmlns="http://www.w3.org/2000/svg" xmlns:xlink="http://www.w3.org/1999/xlink" x="0px" y="0px"
	 viewBox="0 0 553 240" style="enable-background:new 0 0 553 240;" xml:space="preserve">
<style type="text/css">
	.st0{fill:#FFFFFF;}
	.st1{display:none;fill:#473573;}
	.st2{display:none;}
	.st3{display:inline;}
	.st4{display:inline;fill:#FFFFFF;}
	.st5{display:inline;fill:#A3A0FB;}
	.st6{fill:#3D3935;}
	.st7{fill:#007FA3;}
</style>
<g id="Layer_2_xA0_Image_1_">
	<rect x="21.5" y="21.5" class="st0" width="509" height="199"/>
</g>
<g id="Layer_1_xA0_Image_1_">
</g>
<rect x="111.7" y="55" class="st1" width="332" height="126"/>
<g id="Ella_logo_negative_w_strapline" transform="translate(-1007 -668)" class="st2">
	<g id="Group_678" transform="translate(1007 668)" class="st3">
		<path id="Path_1197" class="st0" d="M227.8,145.9h-3.5l-0.8,2.2h-1.2l3.3-8.5h1l3.3,8.5h-1.2L227.8,145.9z M224.6,145h2.9l-1.5-4
			L224.6,145z"/>
		<path id="Path_1198" class="st0" d="M236.9,148.1h-1.6v-6.2l-2,0.8v-1.6l3.6-1.5V148.1z"/>
		<path id="Path_1199" class="st0" d="M245.7,143.9c0,2.7-1.6,4.3-3.6,4.3s-3.6-1.6-3.6-4.3s1.6-4.3,3.6-4.3
			S245.7,141.2,245.7,143.9z M240.2,143.9c0,1.8,0.9,2.8,1.9,2.8c1.1,0,1.9-1,1.9-2.8s-0.9-2.8-1.9-2.8
			C241,141.1,240.2,142.1,240.2,143.9z"/>
		<path id="Path_1200" class="st0" d="M253.9,143.9c0,2.7-1.6,4.3-3.6,4.3s-3.6-1.6-3.6-4.3s1.6-4.3,3.6-4.3
			S253.9,141.2,253.9,143.9z M248.4,143.9c0,1.8,0.9,2.8,1.9,2.8c1.1,0,1.9-1,1.9-2.8s-0.9-2.8-1.9-2.8S248.4,142.1,248.4,143.9z"/>
		<path id="Path_1201" class="st0" d="M260.4,139.7c2.3-0.2,4.2,1.5,4.4,3.8c0,0.1,0,0.3,0,0.4c0.1,2.2-1.6,4.1-3.9,4.2
			c-0.2,0-0.4,0-0.5,0h-3.5v-8.4H260.4z M258.6,141.3v5.3h1.8c1.3,0.1,2.5-0.8,2.6-2.1c0-0.2,0-0.3,0-0.5c0.1-1.3-0.9-2.5-2.2-2.6
			c-0.1,0-0.3,0-0.4,0L258.6,141.3L258.6,141.3z"/>
		<path id="Path_1202" class="st0" d="M271.8,148.1h-1.5v-0.6c-0.4,0.5-1,0.8-1.7,0.8c-1.7-0.2-3-1.7-2.8-3.4
			c0.1-1.5,1.3-2.6,2.8-2.8c0.7-0.1,1.3,0.2,1.7,0.8v-0.6h1.5V148.1z M267.4,145.2c0.1,0.8,0.8,1.5,1.6,1.4c0.8-0.1,1.5-0.8,1.4-1.6
			s-0.7-1.4-1.5-1.4s-1.5,0.6-1.5,1.4C267.4,145.1,267.4,145.1,267.4,145.2z"/>
		<path id="Path_1203" class="st0" d="M274.8,150.6h-1.7l2-3.7l-2.5-4.6h1.8l1.6,3l1.5-3h1.8L274.8,150.6z"/>
		<path id="Path_1204" class="st0" d="M283.9,143.9c-0.6-0.3-1.2-0.5-1.9-0.5c-0.6,0-0.9,0.2-0.9,0.5s0.4,0.4,0.9,0.5l0.5,0.1
			c1.3,0.2,2,0.8,2,1.7c0,1.2-1,2-2.7,2c-0.9,0-1.8-0.2-2.6-0.7l0.6-1.2c0.6,0.4,1.3,0.6,2,0.6s1.1-0.2,1.1-0.5s-0.3-0.4-1-0.5
			l-0.5-0.1c-1.3-0.2-2-0.8-2-1.8c0-1.2,0.9-1.9,2.5-1.9c0.8,0,1.7,0.2,2.4,0.6L283.9,143.9z"/>
		<path id="Path_1205" class="st0" d="M294.2,145c0.1,0.8-0.2,1.6-0.7,2.3c-0.8,1-2.4,1.2-3.4,0.4c-0.1-0.1-0.1-0.1-0.2-0.2v3.1
			h-1.1v-8.8h1l0.1,0.7c0.5-0.5,1.1-0.8,1.8-0.8c0.7,0,1.4,0.3,1.8,0.9C294,143.3,294.2,144.1,294.2,145z M293.1,144.9
			c0-0.6-0.2-1.2-0.5-1.7c-0.3-0.4-0.8-0.6-1.3-0.6c-0.6,0-1.2,0.3-1.5,0.9v3c0.3,0.6,0.9,0.9,1.5,0.9c0.5,0,0.9-0.2,1.2-0.6
			C292.9,146.2,293.1,145.6,293.1,144.9z"/>
		<path id="Path_1206" class="st0" d="M298.6,142.8h-0.5c-0.6-0.1-1.2,0.3-1.4,0.9v4.5h-1.1v-6.3h1.1v0.7c0.3-0.5,0.9-0.8,1.5-0.8
			c0.2,0,0.4,0,0.5,0.1L298.6,142.8L298.6,142.8z"/>
		<path id="Path_1207" class="st0" d="M299.4,144.9c0-0.6,0.1-1.2,0.4-1.7c0.2-0.5,0.6-0.8,1-1.1c0.5-0.3,1-0.4,1.5-0.4
			c0.8,0,1.6,0.3,2.1,0.9c0.5,0.7,0.8,1.5,0.8,2.4l0,0c0,0.6-0.1,1.2-0.4,1.7c-0.2,0.5-0.6,0.8-1,1.1c-0.5,0.3-1,0.4-1.5,0.4
			c-0.8,0-1.6-0.3-2.1-0.9C299.6,146.6,299.3,145.8,299.4,144.9z M300.4,145c0,0.6,0.2,1.2,0.5,1.7c0.3,0.4,0.8,0.6,1.3,0.6
			s1-0.2,1.3-0.6c0.4-0.5,0.5-1.2,0.5-1.8s-0.2-1.2-0.5-1.7c-0.6-0.7-1.7-0.8-2.4-0.2c-0.1,0.1-0.1,0.1-0.2,0.2
			C300.5,143.7,300.3,144.4,300.4,145z"/>
		<path id="Path_1208" class="st0" d="M306.2,144.9c-0.1-0.8,0.2-1.7,0.7-2.3c0.5-0.5,1.1-0.9,1.8-0.9c0.7,0,1.3,0.3,1.8,0.8v-3.3
			h1.1v9h-1l-0.1-0.7c-0.4,0.5-1.1,0.8-1.8,0.8c-0.7,0-1.4-0.3-1.8-0.9C306.3,146.7,306.1,145.8,306.2,144.9z M307.3,145
			c0,0.6,0.1,1.2,0.4,1.7c0.3,0.4,0.7,0.6,1.2,0.6c0.6,0,1.2-0.3,1.5-0.9v-2.9c-0.3-0.6-0.9-0.9-1.5-0.9c-0.5,0-0.9,0.2-1.2,0.6
			C307.4,143.7,307.2,144.4,307.3,145z"/>
		<path id="Path_1209" class="st0" d="M317.2,147.5c-0.5,0.5-1.2,0.8-1.9,0.7c-0.6,0.1-1.1-0.2-1.5-0.6c-0.3-0.5-0.5-1.1-0.5-1.7
			v-4.1h1v4.1c0,1,0.4,1.4,1.2,1.4c0.7,0.1,1.4-0.3,1.7-0.9v-4.6h1.1v6.3h-1L317.2,147.5z"/>
		<path id="Path_1210" class="st0" d="M322.4,147.4c0.4,0,0.7-0.1,1-0.4c0.3-0.2,0.4-0.6,0.5-0.9h1c0,0.4-0.1,0.7-0.4,1
			s-0.6,0.6-0.9,0.8c-0.4,0.2-0.8,0.3-1.2,0.3c-0.8,0-1.6-0.3-2.1-0.9c-0.5-0.7-0.8-1.5-0.7-2.3v-0.2c0-0.5,0.1-1.1,0.3-1.6
			c0.2-0.5,0.6-0.8,1-1.1c0.5-0.3,1-0.4,1.5-0.4c0.7,0,1.3,0.2,1.8,0.6c0.5,0.4,0.8,1.1,0.8,1.7h-1c0-0.4-0.2-0.8-0.5-1
			c-0.3-0.3-0.6-0.4-1-0.4c-0.5,0-1,0.2-1.3,0.6c-0.3,0.5-0.5,1.1-0.5,1.7v0.2c0,0.6,0.2,1.2,0.5,1.7
			C321.4,147.2,321.9,147.4,322.4,147.4z"/>
		<path id="Path_1211" class="st0" d="M327.6,140.3v1.5h1.2v0.8h-1.2v3.9c0,0.2,0.1,0.4,0.2,0.6c0.1,0.2,0.3,0.2,0.5,0.2
			s0.3,0,0.5-0.1v0.9c-0.3,0.1-0.5,0.1-0.8,0.1c-0.4,0-0.8-0.1-1.1-0.4c-0.3-0.3-0.4-0.8-0.4-1.2v-3.9h-1.2v-0.8h1.2v-1.5
			L327.6,140.3L327.6,140.3z"/>
	</g>
	<path id="Path_1212" class="st4" d="M1259.6,795.6h-28.7v-38.5h28.5v7h-20.9v8.5h19.9v7h-19.9v8.9h21.1V795.6z"/>
	<path id="Path_1213" class="st4" d="M1274.6,795.6h-7.2V756h7.2V795.6z"/>
	<path id="Path_1214" class="st4" d="M1289.9,795.6h-7.2V756h7.2V795.6z"/>
	<path id="Path_1215" class="st4" d="M1323.6,795.6h-7v-2.9c-2,2.4-4.9,3.7-8,3.6c-7.3,0-12.9-6-12.9-14s5.6-14,12.9-14
		c3.1-0.1,6.1,1.3,8,3.7v-3h7V795.6z M1303.1,782.3c0,4.1,2.7,7.3,6.9,7.3c4.1,0,6.9-3.1,6.9-7.3s-2.8-7.3-6.9-7.3
		C1305.8,774.9,1303.1,778.2,1303.1,782.3z"/>
	<path id="Path_1216" class="st5" d="M1340.2,791c0,2.9-2.3,5.2-5.2,5.3c-2.9,0-5.2-2.4-5.2-5.2s2.4-5.2,5.2-5.2
		C1337.8,785.8,1340.2,788.1,1340.2,791z"/>
</g>
<g>
	<path id="wordmark" class="st6" d="M321.9,142.8c-0.2-0.3-0.5-0.5-0.9-0.5l-0.1,0c-1.1,0.2-1.9,0.2-2.5-0.2
		c-0.9-0.5-1.2-1.8-1.2-3.8V120c0-7.2-4.3-10.8-12.8-10.8c-7.6,0-13.6,3.6-13.6,8.1c0,2.4,1.4,4,3.6,4.3c1.4,0.2,2.7-0.5,3.7-1.5
		c1.9-2,1.6-4.3-0.7-6.8c1.4-1.4,3.8-2.2,6.5-2.2c4.5,0,6.3,2.6,6.3,8.7v4.6c-1,0.3-2,0.6-3.8,1c-3.6,0.8-8.5,1.9-12.2,3.9
		c-3.1,1.7-4.6,4.3-4.6,7.8c0,3.8,2.6,8.3,9.7,8.3c4,0,7.6-1.9,11.3-5.9c0.3,4.2,1.9,5.8,5.8,5.8c1.9,0,3.4-0.4,5.1-1.3
		C321.8,143.9,322.1,143.3,321.9,142.8L321.9,142.8z M310.1,137.3c-0.9,1.2-3.7,4.8-7.2,4.8c-4.8,0-5.8-3.3-5.8-6.1
		c0-4.6,3.6-6.7,13-9V137.3z M401.8,145.7c-10.1,0-17.8-7.9-17.8-18.2c0-10.2,8-18.5,17.8-18.5c9.9,0,17.7,8,17.7,18.1
		C419.5,138.6,410.3,145.7,401.8,145.7z M401.4,110.9c-4.4,0-9.4,1.9-9.4,16.4c0,11.1,3.3,16.4,10.1,16.4c6.5,0,9.4-5.1,9.4-16.4
		C411.5,116.3,408.2,110.9,401.4,110.9z M245,109.7c0,8.4-2.1,13.1-12.9,13.1h-5.7V97.3h6C243.5,97.2,245,103.5,245,109.7z
		 M226.4,138.3v-13.3h5.2c7.7,0,13.6-1.6,17.5-4.8c4-3.3,4.9-7.5,4.9-10.5c0-12.1-11.8-14.7-21.8-14.7h0H212c-0.5,0-0.8,0.4-0.8,0.8
		v0l0,0c0,0.4,0.3,0.8,0.7,0.9c1.8,0.7,6.7-0.3,6.7,4.9v36.5c0,2.7-1.2,4.5-6.7,5c-0.4,0-0.8,0.4-0.8,0.8v0.1c0,0.5,0.4,0.8,0.8,0.8
		h21.6c0.5,0,0.8-0.3,0.8-0.8v-0.1c0-0.4-0.3-0.8-0.8-0.8C227.6,142.9,226.4,141.1,226.4,138.3v-13.2V138.3z M270.2,109
		c-9.4,0-17,8.4-17,18.7c0,10.4,7.2,18,17,18c8.3,0,12.3-4.9,14.6-8.6c0.2-0.3,0.1-0.9-0.2-1.1l-0.1-0.1c-0.3-0.2-0.9-0.2-1.1,0.2
		c-3.1,3.8-5.7,6-10.3,6c-5.8,0-12-3.9-12-15.1v-0.1c0-0.5,0-1.2,0-1.8h23.8c0.1,0,0.1,0,0.1-0.1v-0.2c0.3-4.6-1-8.6-3.7-11.5
		C278.7,110.5,274.9,109,270.2,109z M261.2,122.8c0.8-7.6,3.8-11.8,8.5-11.8c2.4,0,4.1,0.7,5.3,2c1.7,1.8,2.4,5.1,2.1,9.8H261.2z
		 M369,123.2L369,123.2c-6.5-1.8-9.1-3.6-9.1-6.5c0-3.3,2.6-5.6,6.3-5.6c4.3,0,6.1,2,10.6,9.5l0.1,0.1c0,0,0.1,0.1,0.1,0.1h0.7
		c0.5,0,0.8-0.3,0.8-0.8v-10.7c0-0.1,0-0.1,0-0.1h-0.9c-0.2,0-0.5,0.1-0.6,0.3l-1.4,1.7c-1.8-1-4.8-2-7.8-2
		c-7.5,0-12.7,4.6-12.7,11.1c0,6.1,4.1,8.4,11.2,10.3c6.9,1.9,9.4,3.8,9.4,7.4c0,4-3.9,5.8-6.7,5.8c-5.2,0-7.4-1.9-12.4-10.8
		l-0.1-0.1c0,0-0.1-0.1-0.1-0.1h-0.7c-0.5,0-0.8,0.4-0.8,0.8v12c0,0.1,0,0.1,0.1,0.1h0.9c0.2,0,0.4-0.1,0.6-0.2l2.3-2.2
		c2.7,1.6,6.7,2.5,9.2,2.5c3.9,0,7.1-1.2,9.2-3.5c1.9-2.1,3-5,3-8.2C380.1,128.4,377.1,125.5,369,123.2z M329.5,140.8
		c0,1.9-0.5,2.4-3.4,2.6c-0.4,0-0.8,0.4-0.8,0.8c0,0.5,0.4,0.8,0.8,0.8h14.7c0.5,0,0.8-0.3,0.8-0.8c0-0.4-0.3-0.8-0.8-0.8
		c-3.4-0.2-4.3-0.7-4.3-2.7v-21.3c2.4-4,4.2-6.1,7.1-6.7c-0.2,0.5-0.2,1.1-0.2,1.6c0,2.6,1.8,4.4,4.4,4.4c2.6,0,4.4-1.8,4.4-4.4
		c0-2.4-1.5-5.3-5.9-5.3c-3.6,0-7,2-9.9,6.9v-5.5c0-0.5-0.5-1-1-1l-9.3,0.2c-0.5,0-0.8,0.4-0.8,0.8v0.1c0,0.4,0.3,0.7,0.7,0.8
		c3.1,0.4,3.5,1.9,3.5,3.4V140.8L329.5,140.8z M431.5,109.4c0.2,0,0.4,0.1,0.6,0.2c0.2,0.2,0.3,0.3,0.3,0.6l0,6.1
		c0,0,3-7.1,12.8-7.1h0.1c6.1,0,9.6,3.9,9.6,10.6v21c0,1.9,0.5,2.4,3.4,2.6c0.4,0,0.8,0.4,0.8,0.8c0,0.5-0.4,0.8-0.8,0.8h-13.2
		c-0.5,0-0.8-0.3-0.8-0.8c0-0.4,0.3-0.8,0.8-0.8c2.4-0.2,2.8-0.8,2.8-2.6v-19c0-6.3-1.8-8.7-6.4-8.7c-3.1,0-5.7,2.7-7.3,5
		c0,0-0.8,1-1.7,2.9l0.1,19.8c0,1.8,0.4,2.4,2.7,2.6c0.4,0,0.7,0.4,0.7,0.8c0,0.5-0.4,0.9-0.8,0.9H422c-0.5,0-0.8-0.3-0.8-0.8
		c0-0.4,0.3-0.8,0.8-0.8c3-0.2,3.4-0.8,3.4-2.6v-25.9c0-1.5-0.4-3-3.5-3.4c-0.4,0-0.7-0.4-0.7-0.8v-0.1c0-0.5,0.3-0.8,0.8-0.8
		L431.5,109.4z"/>
	<path id="thumbprint" class="st7" d="M172.7,72.5c23.3,13.1,28.8,42.5,12.5,72.3c-14.3,26.2-45.4,37.3-68.7,24
		C93.4,155.6,88.8,118.4,98.8,97C113.3,65.9,147,58,172.7,72.5"/>
	<path id="interrobang" class="st0" d="M172.2,95.1c4.6,4.8,6,12.1,5.2,18.1c-0.9,6.8-5.1,13.2-12.1,17.3c-5.5,3.3-12.8,4.6-20,4.7
		c-0.1,1.1-0.3,5-0.4,5.6c-0.2,0.9-0.5,1.4-0.9,1.9c-0.8,1-2.1,1.6-3.4,2c-1,0.3-2.1,0.4-2.8,0.4c-0.1,0-0.2,0-0.3,0
		c-0.8-0.1-1.6-0.5-2.2-1c-0.5-0.6-0.9-1.3-0.9-2.2l-0.1-0.8c-0.2-0.7-1-33.9-0.8-33.2c0.1-4,6.6-4.7,10.2-4c3.5,0.7,2.6,5,2.6,10.1
		c0,0-0.2,6.8-0.5,14.1c4.5-0.2,8.1-1.4,11.5-3.1c6.8-3.3,10.3-8.4,10.3-15.9c0-7.5-7.4-15.8-21-15.8c-13.6,0-19.5,3.4-26,8.7
		c-1.5,1.2-2.6,2.4-3.7,3.3c-1.1,0.8-3.9,0.9-4.7-1c-0.9-2.3,0.8-4.8,1.8-6c1.6-1.9,5.5-5.8,9.9-8c5-2.6,11.1-5.3,19.7-5.6
		c7.7-0.2,19.9,0.4,28.7,10.2 M142.7,150c-0.7-0.5-1.5-0.9-2.3-1.1c-0.3,0-0.5-0.1-0.9-0.1c-1.5,0-3,0.8-4,2.2
		c-0.8,1.2-1.2,2.5-0.9,3.9c0.2,0.9,0.5,1.6,0.9,2.1c0.5,0.6,1.4,1.1,2.4,1.4c0.6,0.2,1.2,0.2,1.8,0.2l0,0c1.3,0,2.5-0.4,3.4-1.1
		c1.1-0.9,1.6-2.1,1.6-3.4C144.8,152.6,144,151,142.7,150"/>
</g>
</svg>
