<?xml version="1.0" encoding="UTF-8"?>
<svg xmlns="http://www.w3.org/2000/svg" width="154.332" height="150.238" viewBox="0 0 154.332 150.238">
  <path id="Icon_Applications" d="M192.291,53.39H56.091a9.076,9.076,0,0,0-9.066,9.066V171.8a9.076,9.076,0,0,0,9.066,9.067H108.8v17.3h-8.061a2.732,2.732,0,0,0,0,5.464h46.893a2.732,2.732,0,0,0,0-5.464h-8.061v-17.3h52.714a9.076,9.076,0,0,0,9.066-9.067V62.456A9.076,9.076,0,0,0,192.291,53.39ZM134.113,198.164H114.269v-17.3h19.844Zm61.78-26.366a3.606,3.606,0,0,1-3.6,3.6H56.091a3.606,3.606,0,0,1-3.6-3.6V158.6h143.4Zm0-18.667H52.489V62.456a3.605,3.605,0,0,1,3.6-3.6h136.2a3.605,3.605,0,0,1,3.6,3.6Zm-77.377,16.477h11.351a2.732,2.732,0,0,0,0-5.464H118.516a2.732,2.732,0,0,0,0,5.464Zm5.675-74.447a11.633,11.633,0,1,0,11.633,11.633A11.646,11.646,0,0,0,124.19,95.161Zm0,17.8a6.168,6.168,0,1,1,6.169-6.168A6.175,6.175,0,0,1,124.19,112.962ZM148.3,94.953l7.063-8.69L144.722,75.618l-8.69,7.063a26.678,26.678,0,0,0-3.164-1.314l-1.149-11.135H116.663l-1.15,11.135a26.724,26.724,0,0,0-3.164,1.314l-8.69-7.063L93.015,86.263l7.063,8.69a26.678,26.678,0,0,0-1.314,3.164l-11.136,1.15v15.055l11.136,1.15a26.621,26.621,0,0,0,1.314,3.163l-7.063,8.69,10.645,10.645,8.69-7.063a26.7,26.7,0,0,0,3.164,1.314l1.15,11.135h15.055l1.149-11.135a26.652,26.652,0,0,0,3.164-1.314l8.69,7.063,10.645-10.645-7.063-8.69a26.732,26.732,0,0,0,1.314-3.163l11.136-1.15V99.267l-11.136-1.15A26.79,26.79,0,0,0,148.3,94.953Zm6.985,14.439-9.921,1.025-.481,1.829a21.245,21.245,0,0,1-2.21,5.322l-.956,1.633,6.3,7.745-3.675,3.675-7.745-6.3-1.633.956a21.269,21.269,0,0,1-5.322,2.21l-1.829.481-1.024,9.921h-5.2l-1.024-9.921-1.829-.481a21.258,21.258,0,0,1-5.322-2.21l-1.634-.956-7.745,6.3-3.674-3.675,6.294-7.744-.954-1.633a21.218,21.218,0,0,1-2.21-5.322l-.482-1.829-9.92-1.025v-5.2l9.92-1.025.482-1.829a21.212,21.212,0,0,1,2.21-5.323l.954-1.634-6.294-7.744,3.674-3.674,7.744,6.294,1.634-.954a21.217,21.217,0,0,1,5.322-2.21l1.83-.48,1.024-9.921h5.2l1.024,9.921,1.831.48a21.234,21.234,0,0,1,5.322,2.21l1.633.954,7.744-6.294,3.675,3.674-6.295,7.744.954,1.634a21.262,21.262,0,0,1,2.21,5.323l.481,1.829,9.921,1.025Z" transform="translate(-47.025 -53.39)" fill="#fff"/>
</svg>
