<?xml version="1.0" encoding="UTF-8"?>
<svg xmlns="http://www.w3.org/2000/svg" width="157.977" height="158.659" viewBox="0 0 157.977 158.659">
  <path id="Icon_Startup" d="M154.049,104.19a14.406,14.406,0,0,0,10.22-4.227h0a14.472,14.472,0,1,0-10.22,4.226Zm-6.357-20.805A8.99,8.99,0,0,1,160.406,96.1h0a8.99,8.99,0,1,1-12.714-12.715Zm39.04,119.183H83.833A9.872,9.872,0,0,1,76.52,199.3l-1.635-1.813L72.9,198.908a19.592,19.592,0,0,1-27.335-27.335l1.423-1.985-1.813-1.635a9.852,9.852,0,1,1,16.447-7.375c-.005.072-.009.145-.01.219l-.026,2.433,2.413.307a19.509,19.509,0,0,1,11,5.233l0,0,.014.011a19.518,19.518,0,0,1,5.923,11.689l.307,2.413,2.433-.026c.071,0,.142,0,.219-.01a9.87,9.87,0,0,1,9.8,9.858,2.732,2.732,0,1,0,5.464,0,15.345,15.345,0,0,0-13.188-15.174,24.95,24.95,0,0,0-5.206-10.59l21.133-20.753,2.132,2.133L88.686,163.391a2.732,2.732,0,0,0,3.828,3.9l15.377-15.1,2.68,2.68,1.748-.844c.5-.242,4.793-2.329,11.118-5.83l.346,22.078a3.939,3.939,0,0,0,6.148,3.2c25.044-16.961,23.563-37.1,22.335-43.458a165.5,165.5,0,0,0,19.724-16.537c22.928-22.928,22.454-59.857,22.423-61.418l-.053-2.624-2.624-.053c-1.561-.033-38.489-.508-61.419,22.422a165.373,165.373,0,0,0-16.536,19.724c-6.36-1.229-26.5-2.709-43.46,22.337a3.94,3.94,0,0,0,3.2,6.147l22.077.346c-3.5,6.325-5.588,10.615-5.83,11.117l-.844,1.748,9.108,9.109-21.2,20.819a24.957,24.957,0,0,0-2.687-1.807l16.98-16.674a2.732,2.732,0,1,0-3.828-3.9L68.75,158.978c-.595-.179-1.2-.338-1.812-.473a15.322,15.322,0,1,0-27.054,11.789,25.06,25.06,0,0,0,34.295,34.294,15.321,15.321,0,0,0,9.655,3.443h102.9a2.732,2.732,0,0,0,0-5.464ZM129.2,167.293l-.346-22.168c5.488-3.182,11.87-7.1,18.4-11.582C147.857,140.234,146.631,154.4,129.2,167.293ZM188.893,54.9a107.93,107.93,0,0,1-3.514,22.79L166.1,58.411A107.9,107.9,0,0,1,188.893,54.9ZM134.181,75.664c7.571-7.571,16.988-12.384,26-15.452l23.4,23.4c-3.068,9.007-7.882,18.424-15.452,26-14.773,14.773-36.112,27.6-48.423,34.372L99.809,124.087C106.585,111.777,119.407,90.438,134.181,75.664ZM76.5,114.59c12.89-17.43,27.059-18.656,33.75-18.054-4.479,6.529-8.4,12.912-11.583,18.4ZM95.55,132.119c.391-.772.917-1.794,1.555-3.009l17.575,17.574c-1.214.638-2.238,1.165-3.009,1.556Z" transform="translate(-36.441 -49.373)" fill="#fff"/>
</svg>
