<?xml version="1.0" encoding="UTF-8"?>
<svg xmlns="http://www.w3.org/2000/svg" width="141.024" height="162.009" viewBox="0 0 141.024 162.009">
  <path id="Icon_Government" d="M154.332,112.167v18.7a2.732,2.732,0,0,0,5.464,0v-18.7a2.732,2.732,0,0,0-5.464,0Zm-80.839-9h5.641v27.7a2.732,2.732,0,1,0,5.464,0v-27.7h84.774v27.7a2.732,2.732,0,1,0,5.464,0v-27.7h5.641a2.732,2.732,0,0,0,0-5.464h-5.789a2.708,2.708,0,0,0,.148-.848c0-23.425-20-42.628-45.119-43.936V41.689a2.732,2.732,0,0,0-5.464,0V52.917C99.135,54.225,79.134,73.428,79.134,96.852a2.708,2.708,0,0,0,.148.848H73.492a2.732,2.732,0,0,0,0,5.464ZM84.6,96.852C84.6,75.6,103.613,58.3,126.985,58.3S169.372,75.6,169.372,96.852a2.708,2.708,0,0,0,.148.848H84.45A2.708,2.708,0,0,0,84.6,96.852Zm54.695,15.315v18.7a2.732,2.732,0,1,0,5.464,0v-18.7a2.732,2.732,0,1,0-5.464,0ZM195.058,195.5h-7.473V144.033h7.473a2.732,2.732,0,1,0,0-5.464H59.5a2.732,2.732,0,1,0,0,5.464h7.473V195.5H59.5a2.732,2.732,0,1,0,0,5.464H195.058a2.732,2.732,0,1,0,0-5.464Zm-12.937,0H171.136V159.543a2.732,2.732,0,0,0-5.464,0V195.5H154.686V159.543a2.732,2.732,0,0,0-5.464,0V195.5H138.236V159.543a2.732,2.732,0,0,0-5.464,0V195.5H121.786V159.543a2.732,2.732,0,0,0-5.464,0V195.5H105.336V159.543a2.732,2.732,0,0,0-5.464,0V195.5H88.887V159.543a2.732,2.732,0,0,0-5.464,0V195.5H72.437V144.033H182.121ZM94.174,112.167v18.7a2.732,2.732,0,1,0,5.464,0v-18.7a2.732,2.732,0,1,0-5.464,0Zm15.04,0v18.7a2.732,2.732,0,1,0,5.464,0v-18.7a2.732,2.732,0,0,0-5.464,0Zm15.039,0v18.7a2.732,2.732,0,0,0,5.464,0v-18.7a2.732,2.732,0,0,0-5.464,0Z" transform="translate(-56.767 -38.957)" fill="#fff"/>
</svg>
