<?xml version="1.0" encoding="utf-8"?>
<!-- Generator: Adobe Illustrator 24.0.3, SVG Export Plug-In . SVG Version: 6.00 Build 0)  -->
<svg version="1.1" id="Layer_1" xmlns="http://www.w3.org/2000/svg" xmlns:xlink="http://www.w3.org/1999/xlink" x="0px" y="0px"
	 viewBox="0 0 553 240" style="enable-background:new 0 0 553 240;" xml:space="preserve">
<style type="text/css">
	.st0{fill:#FFFFFF;}
	.st1{fill-rule:evenodd;clip-rule:evenodd;fill:#FF9E18;}
</style>
<g id="Layer_2_xA0_Image_1_">
	<rect x="21.5" y="21.5" class="st0" width="509" height="199"/>
	<g id="Logo" transform="translate(0.069)">
		<g id="Welcome" transform="translate(-0.069)">
			<g id="Logo-2" transform="translate(0)">
				<g id="Group-30" transform="translate(0)">
					<path id="Fill-1" class="st1" d="M179.5,105.3h-5.9c-0.6,0-1,0.4-1,1c0,0,0,0,0,0.1v25.4c0,0.6,0.5,1,1,1h5.9c0.6,0,1-0.4,1-1
						c0,0,0,0,0-0.1v-25.4C180.6,105.8,180.1,105.3,179.5,105.3"/>
					<path id="Fill-3" class="st1" d="M176.3,94.3c-2.7,0-4.2,1.4-4.2,4s1.5,4,4.2,4c2.7,0,4.2-1.4,4.2-4S179.1,94.3,176.3,94.3"/>
					<path id="Fill-5" class="st1" d="M205.8,126.4c-0.5-0.9-1-0.9-2.1-0.4c-0.8,0.4-1.7,0.5-2.5,0.5c-1.9,0-4.2-0.8-4.2-4.8v-10.6
						h7.8c0.6,0,1-0.5,1-1v-3.8c0-0.6-0.5-1-1-1h-7.8v-7.6c0-0.4-0.3-0.8-0.8-0.8c-0.1,0-0.1,0-0.2,0l-5.7,1.1
						c-0.6,0.1-1.1,0.7-1.1,1.3v6h-4.1c-0.6,0-1,0.5-1,1v3.8c0,0.6,0.5,1,1,1h4.1v12.6c0,5.9,3.9,9.5,10.5,9.5
						c2.4,0.1,4.7-0.5,6.7-1.7c1.1-0.7,1.3-1.4,0.7-2.6L205.8,126.4z"/>
					<path id="Fill-7" class="st1" d="M226.3,104.8c-2.4,0.1-4.8,0.6-7,1.6V95.9c0-0.6-0.5-1-1-1h-5.7c-0.6,0-1,0.5-1,1v35.8
						c0,0.6,0.5,1,1,1h5.7c0.6,0,1-0.5,1-1v-18.1c1.8-1,3.8-1.5,5.8-1.6c3.7,0,4.5,2.1,4.5,5.5v14.3c0,0.6,0.5,1,1,1h5.7
						c0.6,0,1-0.5,1-1v-16.5C237.4,108.6,233.4,104.8,226.3,104.8"/>
					<path id="Fill-9" class="st1" d="M155.8,104.8c-3.2,0-6.9,1.6-9,3.1c-1.9-2.2-4.9-3.1-8.5-3.1c-2.7,0.1-5.4,0.9-7.8,2.3
						l-0.4-0.8c-0.4-0.8-0.6-1-1.3-1h-3.9c-0.6,0-1,0.5-1,1v25.4c0,0.6,0.5,1,1,1h5.7c0.6,0,1-0.5,1-1v-18.1c1.6-1,3.4-1.5,5.3-1.6
						c3.7,0,4.4,2,4.4,5.5v14.3c0,0.6,0.5,1,1,1h5.7c0.6,0,1-0.5,1-1v-16.4c0-0.5,0-1.2-0.1-1.7c1.6-1,3.5-1.6,5.4-1.7
						c3.7,0,4.4,2,4.4,5.5v14.3c0,0.6,0.5,1,1,1h5.7c0.6,0,1-0.5,1-1v-16.4C166.6,108.5,162.7,104.8,155.8,104.8"/>
					<path id="Fill-11" class="st1" d="M106.5,109.6l-3.3-0.9c-3.5-0.9-5.8-1.8-5.8-3.9c0-3,3.7-3.3,6.5-3.3c3.4,0.1,6.7,0.8,9.9,2
						c0.8,0.3,1.3,0.2,1.6-0.6l1.4-4.2c0.3-0.9,0.2-1.3-0.7-1.7c-3.8-1.7-7.9-2.6-12-2.5c-7.1,0-14.8,2.7-14.8,10.6
						c0,5.6,3.4,8.8,12.3,11.3l3.8,1c4.1,1.1,5.7,1.8,5.7,4.3c0,2.6-2.4,4.2-6.6,4.2c-3.5,0-7.1-0.9-11.7-2.8
						c-1-0.3-1.7-0.3-2.1,0.6l-1.6,4.2c-0.4,1-0.1,1.5,0.7,2c4.6,2.2,9.6,3.4,14.7,3.4c8.6,0,14.8-4.3,14.8-12.3
						C119.3,113.5,114.7,111.8,106.5,109.6"/>
					<path id="Fill-13" class="st1" d="M260.8,118.8h-18.9c-0.6,0-1,0.4-1,1v5c0,0.6,0.5,1,1,1c0,0,0,0,0,0h18.9c0.6,0,1-0.4,1-1v-5
						C261.8,119.2,261.4,118.8,260.8,118.8C260.8,118.8,260.8,118.8,260.8,118.8"/>
					<path id="Fill-15" class="st1" d="M392.7,116.3c0.2-3.5,2.5-5.3,5.8-5.3c2.8-0.1,5.1,2,5.2,4.8c0,0.2,0,0.3,0,0.5H392.7z
						 M398.6,104.8c-8.2,0-14.1,6-14.1,14.3c0,8.6,5.7,14.1,14.5,14.1c3.7,0.1,7.4-0.9,10.6-2.8c0.7-0.4,1-1.4,0.6-2.1
						c0,0,0-0.1-0.1-0.1l-1.4-2.7c-0.3-0.6-1.1-0.9-1.7-0.6c-0.1,0-0.2,0.1-0.2,0.1c-2.1,1.1-4.4,1.7-6.7,1.7
						c-4.2,0-6.8-1.6-7.2-5.7h17c0.9,0,1.7,0,1.7-4.1C411.4,109.6,406.4,104.8,398.6,104.8L398.6,104.8z"/>
					<path id="Fill-17" class="st1" d="M297.5,116.3c0.2-3.5,2.5-5.3,5.8-5.3c2.8-0.1,5.1,2,5.2,4.8c0,0.2,0,0.3,0,0.5H297.5z
						 M303.4,104.8c-8.2,0-14.1,6-14.1,14.3c0,8.6,5.7,14.1,14.5,14.1c3.7,0.1,7.4-0.9,10.6-2.8c0.7-0.4,1-1.4,0.6-2.1
						c0,0,0-0.1-0.1-0.1l-1.4-2.7c-0.3-0.6-1.1-0.9-1.7-0.6c-0.1,0-0.2,0.1-0.2,0.1c-2.1,1.1-4.4,1.7-6.7,1.7
						c-4.2,0-6.8-1.6-7.2-5.7h17c0.9,0,1.7,0,1.7-4.1C316.2,109.6,311.2,104.8,303.4,104.8L303.4,104.8z"/>
					<g id="Group-21" transform="translate(385.416 12.753)">
						<path id="Fill-19" class="st1" d="M71.2,92.3h-5.8c-0.6,0-1.2,0.5-1.4,1l-4.9,16.5l-5.5-16.5c-0.3-0.6-0.8-1-1.5-1h-4.7
							c-0.7,0-1.2,0.4-1.5,1l-5.5,16.5l-4.8-16.5c-0.2-0.6-0.8-1-1.4-1h-6c-0.3-0.1-0.6,0.2-0.7,0.5c0,0.1,0,0.2,0,0.4l8.5,25.4
							c0.2,0.6,0.8,1,1.4,1h5c0.7,0,1.2-0.4,1.5-1l5.8-16.6l5.6,16.6c0.3,0.6,0.8,1,1.5,1h5c0.7,0,1.2-0.4,1.5-1l8.6-25.4
							c0.1-0.3,0-0.7-0.3-0.8C71.5,92.3,71.4,92.3,71.2,92.3"/>
					</g>
					<path id="Fill-22" class="st1" d="M334.1,126.1c-1.9,0-3.9-0.5-5.6-1.4v-11.3c1.6-1,3.4-1.5,5.3-1.6c4.5,0,7.4,2.7,7.4,7.2
						C341.2,123.4,338.4,126.1,334.1,126.1 M334.9,104.8c-2.7,0-5.3,0.9-7.6,2.3l-0.4-0.8c-0.4-0.8-0.6-1-1.3-1h-3.9
						c-0.6,0-1,0.5-1,1v36.3c0,0.6,0.5,1,1,1h5.7c0.6,0,1-0.5,1-1v-10.4c2,0.6,4.1,1,6.1,0.9c8.4,0,14.5-6,14.5-14.4
						C349.1,109.5,343.4,104.8,334.9,104.8"/>
					<path id="Fill-24" class="st1" d="M368.4,104.8c-2.4,0.1-4.8,0.6-7,1.6V95.9c0-0.6-0.5-1-1.1-1h-5.7c-0.6,0-1,0.5-1,1v35.8
						c0,0.6,0.5,1,1,1h5.7c0.6,0,1-0.5,1-1v-18.1c1.8-1,3.8-1.5,5.8-1.6c3.7,0,4.5,2.1,4.5,5.5v14.3c0,0.6,0.5,1,1,1h5.7
						c0.6,0,1-0.5,1-1v-16.5C379.5,108.6,375.5,104.8,368.4,104.8"/>
					<path id="Fill-26" class="st1" d="M254.3,111.8h-5.4c-0.6,0-1,0.4-1,1c0,0,0,0,0,0.1v18.9c0,0.6,0.5,1,1,1h5.4c0.6,0,1-0.4,1-1
						c0,0,0,0,0-0.1v-18.9C255.4,112.3,254.9,111.8,254.3,111.8C254.4,111.8,254.3,111.8,254.3,111.8"/>
					<path id="Fill-28" class="st1" d="M283.2,94.8h-5.8c-0.6,0-1,0.5-1,1v24.8L257.7,96c-0.7-0.9-1.1-1.1-2.5-1.1h-6.2
						c-0.6,0-1,0.5-1,1v12.2c0,0.6,0.5,1,1,1h5.3c0.6,0,1-0.5,1-1v-3.2l20.2,26.6c0.6,0.9,1.6,1.4,2.6,1.2h5.2c0.6,0,1-0.5,1-1V95.9
						C284.3,95.3,283.8,94.8,283.2,94.8"/>
				</g>
			</g>
		</g>
	</g>
</g>
<g id="Layer_1_xA0_Image_1_">
</g>
</svg>
