<?xml version="1.0" encoding="UTF-8"?>
<svg xmlns="http://www.w3.org/2000/svg" width="125.525" height="148.722" viewBox="0 0 125.525 148.722">
  <path id="Icon_Transform" d="M191.876,76.357a2.607,2.607,0,0,0-.046-.459c0-.02-.012-.039-.017-.059a2.528,2.528,0,0,0-.115-.374c-.019-.047-.039-.092-.061-.137a2.555,2.555,0,0,0-.152-.28c-.024-.039-.047-.08-.074-.117a2.6,2.6,0,0,0-.278-.338l-.009-.01L168.3,51.756a2.57,2.57,0,0,0-2.255-.712,2.62,2.62,0,0,0-.43-.043H69.2a2.578,2.578,0,0,0-2.578,2.578V93.266a2.578,2.578,0,1,0,5.156,0V56.157H163.9V76.408a2.578,2.578,0,0,0,2.578,2.578h20.25v55.806a2.578,2.578,0,0,0,5.156,0V76.408C191.881,76.391,191.876,76.374,191.876,76.357ZM169.053,73.83V59.8L183.08,73.83Zm17.795,73.859h-5.975a5.039,5.039,0,0,0-5.034,5.033v10.638a5.039,5.039,0,0,0,5.034,5.034h5.975a5.039,5.039,0,0,0,5.034-5.034V152.722A5.039,5.039,0,0,0,186.848,147.689Zm-.122,15.549h-5.73V152.845h5.73Zm-60.185-12.971v15.549a2.578,2.578,0,1,0,5.156,0V150.267a2.578,2.578,0,1,0-5.156,0Zm-49.176-2.578H71.39a5.039,5.039,0,0,0-5.034,5.033v10.638a5.039,5.039,0,0,0,5.034,5.034h5.975a5.039,5.039,0,0,0,5.034-5.034V152.722A5.039,5.039,0,0,0,77.365,147.689Zm-.122,15.549h-5.73V152.845h5.73Zm15.382-15.549a2.578,2.578,0,0,0-2.578,2.578v15.549a2.578,2.578,0,1,0,5.156,0V150.267A2.578,2.578,0,0,0,92.625,147.689Zm21.235,0h-5.976a5.039,5.039,0,0,0-5.034,5.033v10.638a5.039,5.039,0,0,0,5.034,5.034h5.976a5.039,5.039,0,0,0,5.034-5.034V152.722A5.039,5.039,0,0,0,113.86,147.689Zm-.122,15.549h-5.731V152.845h5.731Zm36.616-15.549h-5.976a5.039,5.039,0,0,0-5.034,5.033v10.638a5.039,5.039,0,0,0,5.034,5.034h5.976a5.039,5.039,0,0,0,5.034-5.034V152.722A5.039,5.039,0,0,0,150.354,147.689Zm-.122,15.549H144.5V152.845h5.731Zm17.96,2.578V150.267a2.578,2.578,0,0,0-5.156,0v15.549a2.578,2.578,0,1,0,5.156,0Zm-72.965,12.9H89.249a5.039,5.039,0,0,0-5.033,5.034v5.977a5.039,5.039,0,0,0,5.033,5.032h5.977a5.038,5.038,0,0,0,5.033-5.032v-5.977A5.038,5.038,0,0,0,95.226,178.713ZM95.1,189.6h-5.73v-5.73H95.1Zm15.575-10.582A2.578,2.578,0,0,0,108.1,181.6v15.549a2.578,2.578,0,1,0,5.156,0V181.6A2.578,2.578,0,0,0,110.678,179.017Zm-36.881.234a2.578,2.578,0,0,0-2.578,2.578v4.184a2.578,2.578,0,1,0,5.156,0v-4.184A2.578,2.578,0,0,0,73.8,179.251Zm95.19-.234h-5.976a5.039,5.039,0,0,0-5.034,5.034v5.672a5.039,5.039,0,0,0,5.034,5.032h5.976a5.039,5.039,0,0,0,5.034-5.032v-5.672A5.039,5.039,0,0,0,168.987,179.017Zm-.122,10.582h-5.731v-5.426h5.731Zm-21.306-10.582a2.578,2.578,0,0,0-2.578,2.578v15.549a2.578,2.578,0,0,0,5.156,0V181.6A2.578,2.578,0,0,0,147.559,179.017Zm36.881,0a2.578,2.578,0,0,0-2.578,2.578v5.139a2.578,2.578,0,1,0,5.156,0V181.6A2.578,2.578,0,0,0,184.44,179.017Zm-52.333,0h-5.976a5.038,5.038,0,0,0-5.033,5.034V194.69a5.038,5.038,0,0,0,5.033,5.033h5.976a5.039,5.039,0,0,0,5.033-5.033V184.051A5.039,5.039,0,0,0,132.107,179.017Zm-.123,15.549h-5.73V184.174h5.73Zm-3.432-57.2a5.039,5.039,0,0,0,5.034-5.034V126.36a5.039,5.039,0,0,0-5.034-5.034h-5.976a5.039,5.039,0,0,0-5.033,5.034v5.976a5.039,5.039,0,0,0,5.033,5.034ZM122.7,126.483h5.73v5.731H122.7ZM69.2,137.37a2.578,2.578,0,0,0,2.578-2.578V103.953a2.578,2.578,0,1,0-5.156,0v30.838A2.578,2.578,0,0,0,69.2,137.37Zm72.576-2.578a2.578,2.578,0,1,0,5.156,0v-4.184a2.578,2.578,0,0,0-5.156,0ZM96.008,121.7a5.039,5.039,0,0,0-5.034-5.034H85a5.039,5.039,0,0,0-5.033,5.034v10.638A5.039,5.039,0,0,0,85,137.37h5.976a5.039,5.039,0,0,0,5.034-5.034Zm-5.156,10.515h-5.73V121.821h5.73Zm15.923,5.156a2.578,2.578,0,0,0,2.578-2.578V119.243a2.578,2.578,0,1,0-5.156,0v15.549A2.578,2.578,0,0,0,106.775,137.37Zm37.577-18.091h26.514a2.578,2.578,0,0,0,0-5.156H144.352a2.578,2.578,0,0,0,0,5.156ZM171.443,131.3h-9.936a2.578,2.578,0,1,0,0,5.156h9.936a2.578,2.578,0,0,0,0-5.156Zm0-34.727H83.772a2.578,2.578,0,1,0,0,5.156h87.671a2.578,2.578,0,0,0,0-5.156ZM83.772,84.181h66.549a2.578,2.578,0,1,0,0-5.156H83.772a2.578,2.578,0,1,0,0,5.156Z" transform="translate(-66.356 -51.001)" fill="#fff"/>
</svg>
