<?xml version="1.0" encoding="UTF-8"?>
<svg xmlns="http://www.w3.org/2000/svg" xmlns:xlink="http://www.w3.org/1999/xlink" width="47.457" height="54.881" viewBox="0 0 47.457 54.881">
  <defs>
    <linearGradient id="linear-gradient" x1="0.262" y1="0.5" x2="0.5" y2="1" gradientUnits="objectBoundingBox">
      <stop offset="0" stop-color="#d66080"/>
      <stop offset="1" stop-color="#c03089"/>
    </linearGradient>
  </defs>
  <path id="Icon_DayRate" d="M100.819,153.059a3.826,3.826,0,0,0-2.051-2.608,31.484,31.484,0,0,1-6-3.907A107.53,107.53,0,0,0,95.1,133.967a4.26,4.26,0,0,0-.966-3.4,3.736,3.736,0,0,0-2.79-1.256h0a4.032,4.032,0,0,0-3.135,1.558c-1.878,2.245-4.212,3.171-8.036,3.171-1.71,0-3.509-.18-5.413-.37-1.99-.2-4.047-.4-6.1-.4a16.853,16.853,0,0,0-11.717,3.974,1.741,1.741,0,0,0-2.065-.968l-.1.029a1.755,1.755,0,0,0-1.219,2.163l12.837,44.7a1.4,1.4,0,0,0,1.731.976l.776-.218a1.4,1.4,0,0,0,.976-1.731l-4.392-15.3,1.772-1.844c1.809-1.883,4.082-2.686,7.6-2.686,1.709,0,3.507.179,5.41.369,1.988.2,4.045.4,6.1.4,3.7,0,9.12-.59,13.382-5.683A5.228,5.228,0,0,0,100.819,153.059Zm-3.742,2.165c-2.989,3.572-6.732,4.439-10.719,4.439-3.764,0-7.745-.774-11.509-.774-3.717,0-7.225.754-10.105,3.753L58.5,140.549c2.888-3.047,6.413-3.812,10.154-3.812,3.767,0,7.749.775,11.517.775,3.986,0,7.732-.868,10.72-4.44a.647.647,0,0,1,.451-.288c.224,0,.369.27.311.757A103.524,103.524,0,0,1,88.994,147.3a.72.72,0,0,0,.2.735,35.016,35.016,0,0,0,8.052,5.54C97.6,153.728,97.517,154.695,97.077,155.224Z" transform="translate(-53.481 -129.311)" fill="url(#linear-gradient)"/>
</svg>
