<?xml version="1.0" encoding="UTF-8"?>
<svg xmlns="http://www.w3.org/2000/svg" xmlns:xlink="http://www.w3.org/1999/xlink" width="42.648" height="54.555" viewBox="0 0 42.648 54.555">
  <defs>
    <linearGradient id="linear-gradient" x1="0.262" y1="0.5" x2="0.5" y2="1" gradientUnits="objectBoundingBox">
      <stop offset="0" stop-color="#d66080"/>
      <stop offset="1" stop-color="#c03089"/>
    </linearGradient>
  </defs>
  <path id="Icon_Rapid" d="M238.93,56.821c-.624-8.129-4.406-13.22-7.446-17.311-2.528-3.4-4.354-5.852-4.354-9.333a4.462,4.462,0,0,0-7.079-3.617,28.85,28.85,0,0,0-10.615,15.325c-.019.065-.035.131-.05.2-.075.342-.147.685-.214,1.029a4.463,4.463,0,0,0-5.311-1.092c-.734.357-7.095,3.792-7.455,15.745-.024.422-.024.817-.024,1.167a21.382,21.382,0,0,0,21.239,21.334h.106l.123,0a21.4,21.4,0,0,0,21.18-21.319C239.034,58.385,238.954,57.178,238.93,56.821Zm-21.224,19.8c-1.647,0-4.409-.593-4.409-4.561,0-2.16,2.34-6.06,4.409-8.892,2.069,2.832,4.408,6.731,4.408,8.892C222.115,76.03,219.352,76.623,217.706,76.623Zm7.382-1.436a9.563,9.563,0,0,0,.5-3.125c0-4.757-5.872-12.022-6.54-12.835l-1.34-1.626-1.34,1.626c-.669.813-6.541,8.078-6.541,12.835a9.57,9.57,0,0,0,.5,3.126,17.876,17.876,0,0,1-10.469-16.255c0-.338,0-.676.021-1.013.29-10.134,5.285-12.67,5.5-12.773a.992.992,0,0,1,1.415.762c.01.065.926,6.115,4.971,6.98a43.936,43.936,0,0,1,1.021-10.06,25.224,25.224,0,0,1,9.311-13.457.985.985,0,0,1,1.031-.076,1,1,0,0,1,.539.882c0,4.63,2.333,7.766,5.039,11.4,2.917,3.927,6.224,8.378,6.768,15.477,0,0,.1,1.387.092,1.883A17.873,17.873,0,0,1,225.088,75.187Z" transform="translate(-196.382 -25.713)" fill="url(#linear-gradient)"/>
</svg>
