<?xml version="1.0" encoding="utf-8"?>
<!-- Generator: Adobe Illustrator 24.0.1, SVG Export Plug-In . SVG Version: 6.00 Build 0)  -->
<svg version="1.1" id="Layer_1" xmlns="http://www.w3.org/2000/svg" xmlns:xlink="http://www.w3.org/1999/xlink" x="0px" y="0px"
	 viewBox="0 0 553 240" style="enable-background:new 0 0 553 240;" xml:space="preserve">
<style type="text/css">
	.st0{fill:#FFFFFF;}
	.st1{fill:#302C2D;}
	.st2{fill:#26A8E1;}
</style>
<g id="Layer_2_xA0_Image_1_">
	<rect x="21.5" y="21.5" class="st0" width="509" height="199"/>
</g>
<g id="Layer_1_xA0_Image_1_">
</g>
<g>
	<g id="UNLFJG_1_">
		<g>
			<path class="st1" d="M221.4,134.5c-1,0.5-1,1.2-1.2,1.9c-1.2,4.5-2.4,9-3.6,13.5c-0.7,2.7-0.8,2.7-3.4,2.7c-1.4,0-2.8,0-4.1,0
				c-2.6-0.1-3-0.4-3.7-3c-2.2-8.2-4.3-16.4-6.5-24.6c-0.5-1.8-1.1-3.7-1.5-5.5c-0.4-1.6,0.1-2.1,1.7-2.3c0.2,0,0.4,0,0.6,0
				c6.6,0,6.2-0.5,7.6,5.8c1,4.3,2.1,8.7,3.1,13c0.1,0.5,0.1,1.1,0.9,1.4c0.9-0.7,1-1.9,1.3-2.9c1.3-4.9,2.6-9.8,4-14.8
				c0.7-2.5,0.7-2.5,3.2-2.5c6,0,5.7-0.4,7.2,5.5c1,4.1,2.1,8.2,3.2,12.3c0.2,0.9,0.3,1.9,1.1,2.5c1.1-0.2,0.9-1.1,1.1-1.7
				c1.3-5.4,2.6-10.7,3.9-16.1c0.6-2.5,0.7-2.4,3.2-2.5c6-0.1,6.4,0.3,4.9,6c-2.3,8.8-4.6,17.7-6.9,26.5c-0.8,3-0.8,3-3.9,3
				c-1.2,0-2.3,0-3.5,0c-2.8-0.1-3.3-0.4-4-3.1c-1.2-4.3-2.3-8.6-3.4-12.9C222.5,135.9,222.5,135,221.4,134.5z"/>
			<path class="st1" d="M347,117.2c0.3,0,0.6,0,1,0c3.8,0,4,0.1,5.2,3.7c3.2,9.2,6.3,18.4,9.5,27.7c0.2,0.7,0.4,1.4,0.7,2.1
				c0.5,1.2-0.1,1.9-1.3,2c-1.8,0.1-3.6,0.1-5.4,0c-1.4-0.1-2.3-1-2.7-2.3c-0.5-1.6-0.4-3.7-1.8-4.6c-1.5-1-3.5-0.4-5.3-0.4
				c-5.2,0-5.3,0-6.8,5c-0.5,1.7-1.4,2.5-3.1,2.4c-1.4-0.1-2.8,0.1-4.1-0.1c-1.7-0.2-2.2-0.9-1.8-2.6c0.3-1.2,0.8-2.4,1.2-3.6
				c2.8-8.2,5.6-16.4,8.4-24.7C342.5,116.4,341.8,117.2,347,117.2z M346.7,128c-1,3.5-2,7.1-3.1,10.8c2.5,0.2,4.7,0.5,7.1-0.2
				C349.4,135,348.7,131.4,346.7,128z"/>
			<path class="st1" d="M393.4,125.4c0.5-2,0.2-3.7,0.3-5.4c0.1-2.5,0.3-2.8,2.7-2.8c6.8-0.2,6.1,0.6,6,5.9c0,8-0.1,15.9,0.1,23.9
				c0,2.4-0.9,3.8-3,4.6c-5.3,2.1-10.6,2.2-15.8-0.1c-3.6-1.6-5.8-4.6-6.6-8.5c-0.6-2.8-0.6-5.7,0.2-8.5c1.8-6.6,6.7-10,13.6-9.4
				C391.6,125.1,392.3,125.2,393.4,125.4z M393.7,139.2C393.7,139.2,393.7,139.2,393.7,139.2c0-1.2-0.1-2.3,0-3.5
				c0.4-2.8-1-3.8-4.1-3.5c-2.3,0.2-3.9,1.5-4.5,3.8c-0.5,1.7-0.6,3.3-0.1,5c0.8,3.4,3.6,5.3,7,5c1.1-0.1,1.7-0.6,1.7-1.8
				C393.7,142.5,393.7,140.8,393.7,139.2z"/>
			<path class="st1" d="M296.2,141.9c0.2,2,1.5,2.9,3,3.5c2.2,1,4.5,1.1,6.8,0.5c3.1-0.8,3.2-0.7,4.4,2.3c0.1,0.3,0.2,0.6,0.3,0.9
				c0.5,1.2,0.2,2-1,2.6c-4.1,1.9-12.7,2.2-17.3-1.6c-6-5.1-6-17.6,0.2-22.5c4.4-3.5,12-3.6,16.4-0.2c4.2,3.2,4.8,7.7,4.3,12.6
				c-0.1,1.4-1.1,1.6-2.3,1.6c-3.7,0-7.4,0-11.1,0C298.7,141.6,297.5,141.4,296.2,141.9z M295.8,136c3.5-0.1,6.7,0.3,10-0.3
				c-0.7-2.6-2-3.8-4.3-4C299,131.5,297.4,132.6,295.8,136z"/>
			<path class="st1" d="M258.8,135.4c-0.7-2.8-1.4-3.4-3.7-3.7c-2.1-0.2-4,0.2-5.9,0.9c-1.6,0.6-2.4,0.1-2.8-1.4
				c-0.2-0.7-0.5-1.4-0.7-2.1c-0.4-1.2,0-2,1.3-2.5c4.7-1.8,9.4-2.4,14.3-0.9c3.8,1.1,5.9,3.8,6,7.7c0.2,5.2,0.1,10.4,0.1,15.6
				c0,1.7-0.9,2.6-2.3,3c-5.3,1.4-10.7,1.7-16,0.2c-3.5-1-5.6-3.6-5.8-6.8c-0.3-3.7,1.4-6.3,4.6-8c2.1-1.1,4.4-1.6,6.7-1.7
				C255.8,135.7,257.2,136,258.8,135.4z M258.9,147c-0.2-2,0.4-4-0.4-6c-1.7-0.3-3.2-0.4-4.8,0.2c-1.7,0.7-2.6,1.9-2.5,3.3
				c0.1,1.4,1.2,2.4,3.1,2.7C255.6,147.5,257,147.6,258.9,147z"/>
			<path class="st1" d="M279.8,125.4c1.4,0,2.8,0.1,4.1,0c1.7-0.1,2.3,0.7,2.3,2.3c0,0.6,0,1.3,0,1.9c-0.2,2.2-0.7,2.7-2.9,2.9
				c-1.2,0.1-2.3-0.2-3.8,0.3c-0.2,3.5-0.3,7.2,0,10.9c0.1,1.8,1.6,2.4,3.9,2c1-0.2,2-1.3,2.9-0.1c0.9,1.3,1.6,2.8,1.7,4.4
				c0,0.8-0.7,1.3-1.4,1.6c-3.4,1.6-6.9,2.1-10.5,1.1c-2.7-0.7-4.3-2.6-4.9-5.3c-0.3-1.5-0.5-2.9-0.5-4.4c0-6.5,0-12.9,0-19.4
				c0-3.2,0.1-3.2,3.2-3.3c0.3,0,0.6,0,1,0c4.1,0,4.2,0,4.6,4.2C279.4,124.6,279.5,124.8,279.8,125.4z"/>
			<path class="st1" d="M333,132.5c-0.6,0-1.2,0-1.7,0c-4.4,0-6.7,2.2-6.8,6.6c-0.1,3.5,0,7,0,10.5c0,2.9-0.1,3-3.1,3
				c-5.2,0.1-5.4-0.1-5.4-5.2c0-6.3,0-12.5,0-18.8c0-3.2,0.1-3.3,3.1-3.3c2.9,0,2.9,0,5.1,2.3c2.3-1.9,4.9-3.1,8.1-2.7
				c2.7,0.3,3.1,0.9,2.3,3.5C334.3,129.8,334.1,131.2,333,132.5z"/>
			<path class="st1" d="M374.4,139.9c0,3.4,0,6.8,0,10.2c0,2.3-0.3,2.5-2.6,2.6c-5.7,0.3-6,0-6-5.6c0-5.9,0-11.9,0-17.8
				c0-3,0.1-3,3-3.1c5.4-0.1,5.6,0.1,5.6,5.4C374.4,134.4,374.4,137.1,374.4,139.9z"/>
			<path class="st1" d="M370.1,124.2c-2.5,0-4.3-1.7-4.3-4.1c0-2.2,1.7-3.9,4.1-4c2.4-0.1,4.4,1.7,4.5,3.9
				C374.4,122.3,372.5,124.2,370.1,124.2z"/>
		</g>
	</g>
	<path class="st2" d="M193.6,101.6c0,3.9,0,7.9,0,11.8c0,2.5-2,5.1-5.1,5.1c-3.5,0-7.1,0-10.6,0c-4.3,0-8.6,0-12.9,0
		c-0.9,0-1.8-0.1-2.6-0.6c-1.7-1-2.7-2.4-2.7-4.4c0-7.9,0-15.9,0-23.8c0-2.1,1.6-4.3,3.9-4.9c3.1-0.7,5.8,1.3,6.3,4.2
		c0.1,0.4,0,0.8,0,1.3c0,5.6,0,11.1,0,16.7c0,0.2,0,0.4,0,0.5c0.1,0.5,0.4,0.8,0.9,0.7c0.4,0,0.7-0.4,0.7-0.8c0-0.2,0-0.4,0-0.5
		c0-5.7,0-11.4,0-17c0-1.1,0.3-2.2,0.9-3.1c1-1.4,2.4-2.2,4.1-2.2c2,0,3.5,0.8,4.5,2.5c0.5,0.8,0.7,1.7,0.7,2.7c0,5.7,0,11.4,0,17
		c0,0.2,0,0.4,0,0.6c0,0.5,0.3,0.8,0.7,0.8c0.4,0,0.8-0.3,0.9-0.8c0-0.2,0-0.4,0-0.6c0-5.7,0-11.4,0-17c0-1.3,0.4-2.5,1.3-3.5
		c0.9-1.1,2.1-1.7,3.5-1.7c1.4-0.1,2.6,0.3,3.7,1.3c1.1,0.9,1.7,2.1,1.7,3.6C193.6,93.5,193.6,97.6,193.6,101.6
		C193.6,101.6,193.6,101.6,193.6,101.6z"/>
	<path class="st2" d="M174.6,120.1c4.5,0,9.1,0,13.6,0c1.2,0,2.3,0.3,3.2,1c1.3,1,2,2.3,2,3.9c0,8,0,16,0,24c0,2.2-1.7,4.3-3.9,4.8
		c-0.3,0.1-0.7,0.1-1,0.1c-8,0-15.9,0-23.9,0c-2.1,0-4.2-1.4-4.9-3.8c-0.1-0.4-0.1-0.7-0.1-1.1c0-4.1,0-8.2,0-12.2
		c0-2.5,2.1-4.7,4.6-4.9c2-0.1,4,0,6.1-0.1c0.7,0,1.3,0,2,0c0.1,0,0.2,0,0.4,0c0.4,0,0.7,0.2,0.9,0.6c0.1,0.4,0,0.8-0.4,1
		c-0.8,0.7-1.5,1.6-2.1,2.5c-0.8,1.3-1.3,2.8-1.3,4.4c0.1,2.6,1.3,4.6,3.6,5.9c2.5,1.3,5,1.1,7.2-0.5c1.5-1.1,2.3-2.5,2.6-4.4
		c0.1-0.5,0.1-0.9,0.1-1.4c0-2.8,0-5.6,0-8.4c0-0.1,0-0.3,0-0.4c0-0.5-0.3-0.8-0.9-0.9c-0.2,0-0.4,0-0.6,0c-5.7,0-11.3,0-17,0
		c-1.6,0-3-0.6-4-1.8c-0.8-0.9-1.2-1.9-1.2-3.1c0-1.4,0-2.9,0-4.3c0-0.5,0.4-1,1-1c0.2,0,0.3,0,0.5,0
		C165.6,120.1,170.1,120.1,174.6,120.1z"/>
	<path class="st2" d="M181.7,136.8c0,1.2,0,2.3,0,3.5c0,1.6-0.6,2.9-1.7,4c-1.9,1.7-4.9,1.7-6.8,0c-1.2-1.1-1.8-2.5-1.7-4.2
		c0.1-1.6,0.7-2.9,1.7-4.1c1.7-2.1,4-3.4,6.6-3.9c0.3-0.1,0.5-0.1,0.8-0.1c0.7-0.1,1.1,0.3,1.1,1
		C181.7,134.3,181.7,135.6,181.7,136.8z"/>
</g>
</svg>
